<svg width="435" height="126" viewBox="0 0 435 126" fill="none" xmlns="http://www.w3.org/2000/svg">
<g clip-path="url(#clip0_2_6)">
<path d="M21.6313 0C9.68901 0 0 10.582 0 23.625V102.375C0 115.418 9.68901 126 21.6313 126H86.5251H93.7355C97.7238 126 100.946 122.481 100.946 118.125C100.946 113.769 97.7238 110.25 93.7355 110.25V94.5C97.7238 94.5 100.946 90.9809 100.946 86.625V7.875C100.946 3.51914 97.7238 0 93.7355 0H86.5251H21.6313ZM21.6313 94.5H79.3147V110.25H21.6313C17.643 110.25 14.4209 106.731 14.4209 102.375C14.4209 98.0191 17.643 94.5 21.6313 94.5ZM28.8417 35.4375C28.8417 33.2719 30.4641 31.5 32.4469 31.5H75.7095C77.6923 31.5 79.3147 33.2719 79.3147 35.4375C79.3147 37.6031 77.6923 39.375 75.7095 39.375H32.4469C30.4641 39.375 28.8417 37.6031 28.8417 35.4375ZM32.4469 47.25H75.7095C77.6923 47.25 79.3147 49.0219 79.3147 51.1875C79.3147 53.3531 77.6923 55.125 75.7095 55.125H32.4469C30.4641 55.125 28.8417 53.3531 28.8417 51.1875C28.8417 49.0219 30.4641 47.25 32.4469 47.25Z" fill="#0d6efd "/>
</g>
<path d="M136.146 79.7895L136.178 33.5175H144.05V73.0695H164.946V79.7895H136.146ZM172.027 79.7895V46.7015H179.483V79.7895H172.027ZM171.899 40.9095V33.5495H179.611V40.9095H171.899ZM206.184 80.4295C204.413 80.4295 202.898 80.1948 201.64 79.7255C200.381 79.2562 199.325 78.6482 198.472 77.9015C197.64 77.1548 196.968 76.3548 196.456 75.5015C195.965 74.6268 195.592 73.7948 195.336 73.0055L194.44 79.7895H188.712V32.2375H196.52V51.5335C196.861 50.8935 197.33 50.2535 197.928 49.6135C198.546 48.9735 199.293 48.3868 200.168 47.8535C201.042 47.3202 202.034 46.8935 203.144 46.5735C204.274 46.2322 205.522 46.0615 206.888 46.0615C211.005 46.0615 214.258 47.5228 216.648 50.4455C219.037 53.3682 220.232 57.5815 220.232 63.0855C220.232 66.5628 219.698 69.6028 218.632 72.2055C217.586 74.8082 216.018 76.8348 213.928 78.2855C211.858 79.7148 209.277 80.4295 206.184 80.4295ZM204.584 74.7015C206.909 74.7015 208.818 73.7735 210.312 71.9175C211.805 70.0615 212.552 67.0535 212.552 62.8935C212.552 59.2668 211.848 56.5255 210.44 54.6695C209.032 52.7922 207.048 51.8535 204.488 51.8535C202.653 51.8535 201.149 52.2695 199.976 53.1015C198.824 53.9335 197.96 55.1708 197.384 56.8135C196.829 58.4562 196.541 60.4828 196.52 62.8935C196.52 67.1175 197.16 70.1468 198.44 71.9815C199.741 73.7948 201.789 74.7015 204.584 74.7015ZM227.274 79.7895V46.7015H234.73V53.8695C235.264 52.2268 236.021 50.8295 237.002 49.6775C238.005 48.5042 239.178 47.6082 240.522 46.9895C241.866 46.3708 243.328 46.0615 244.906 46.0615C245.29 46.0615 245.664 46.0828 246.026 46.1255C246.389 46.1682 246.656 46.2428 246.826 46.3495V53.8055C246.592 53.6988 246.282 53.6242 245.898 53.5815C245.536 53.5388 245.216 53.5175 244.938 53.5175C243.338 53.3895 241.92 53.4535 240.682 53.7095C239.466 53.9655 238.432 54.4028 237.578 55.0215C236.746 55.6188 236.117 56.3868 235.69 57.3255C235.264 58.2428 235.05 59.3202 235.05 60.5575V79.7895H227.274ZM261.655 80.4295C259.543 80.4295 257.644 80.0455 255.959 79.2775C254.295 78.4882 252.983 77.3682 252.023 75.9175C251.084 74.4455 250.615 72.6642 250.615 70.5735C250.615 66.9255 251.927 64.1735 254.551 62.3175C257.196 60.4615 261.399 59.4908 267.159 59.4055L272.119 59.2775V57.0375C272.119 55.2882 271.596 53.9228 270.551 52.9415C269.527 51.9388 267.927 51.4482 265.751 51.4695C264.129 51.4908 262.657 51.8748 261.335 52.6215C260.012 53.3468 259.137 54.5735 258.711 56.3015H252.087C252.215 54.0402 252.865 52.1522 254.039 50.6375C255.233 49.1015 256.865 47.9602 258.935 47.2135C261.004 46.4455 263.393 46.0615 266.103 46.0615C269.26 46.0615 271.831 46.4775 273.815 47.3095C275.799 48.1415 277.26 49.3468 278.199 50.9255C279.137 52.4828 279.607 54.3708 279.607 56.5895V79.7895H273.047L272.407 73.8375C271.233 76.3335 269.729 78.0615 267.895 79.0215C266.081 79.9602 264.001 80.4295 261.655 80.4295ZM264.183 75.1495C265.143 75.1495 266.092 74.9788 267.031 74.6375C267.969 74.2748 268.812 73.7948 269.559 73.1975C270.327 72.5788 270.935 71.8962 271.383 71.1495C271.852 70.4028 272.097 69.6242 272.119 68.8135V63.5975L268.055 63.6615C266.049 63.6828 264.289 63.8962 262.775 64.3015C261.281 64.7068 260.119 65.3575 259.287 66.2535C258.455 67.1282 258.039 68.3015 258.039 69.7735C258.039 71.4588 258.625 72.7815 259.799 73.7415C260.972 74.6802 262.433 75.1495 264.183 75.1495ZM289.083 79.7895V33.5175H319.355L319.323 40.1095H296.987V53.4215H316.699V59.9175H296.987V79.7895H289.083ZM336.123 80.2695C333.989 80.2695 332.283 80.0028 331.003 79.4695C329.723 78.9362 328.763 78.2215 328.123 77.3255C327.483 76.4295 327.067 75.4268 326.875 74.3175C326.683 73.1868 326.587 72.0348 326.587 70.8615V32.2375H334.203V69.9655C334.203 71.3948 334.491 72.5042 335.067 73.2935C335.664 74.0828 336.624 74.5415 337.947 74.6695L339.611 74.7335V79.6295C339.035 79.8002 338.448 79.9495 337.851 80.0775C337.253 80.2055 336.677 80.2695 336.123 80.2695ZM359.037 80.4295C355.88 80.4295 353.128 79.7575 350.781 78.4135C348.435 77.0482 346.611 75.0962 345.309 72.5575C344.029 70.0188 343.389 66.9682 343.389 63.4055C343.389 59.9495 344.019 56.9202 345.277 54.3175C346.536 51.7148 348.328 49.6882 350.653 48.2375C353 46.7868 355.805 46.0615 359.069 46.0615C362.227 46.0615 364.968 46.7548 367.293 48.1415C369.619 49.5282 371.411 51.5122 372.669 54.0935C373.949 56.6748 374.589 59.7788 374.589 63.4055C374.589 66.7548 373.981 69.7095 372.765 72.2695C371.571 74.8082 369.811 76.8028 367.485 78.2535C365.181 79.7042 362.365 80.4295 359.037 80.4295ZM359.069 74.5095C360.861 74.5095 362.333 74.0188 363.485 73.0375C364.659 72.0562 365.533 70.7122 366.109 69.0055C366.685 67.2988 366.973 65.3575 366.973 63.1815C366.973 61.1548 366.717 59.2882 366.205 57.5815C365.693 55.8748 364.851 54.5095 363.677 53.4855C362.525 52.4402 360.989 51.9175 359.069 51.9175C357.256 51.9175 355.752 52.3975 354.557 53.3575C353.384 54.2962 352.509 55.6188 351.933 57.3255C351.357 59.0108 351.069 60.9628 351.069 63.1815C351.069 65.1868 351.325 67.0535 351.837 68.7815C352.349 70.4882 353.192 71.8748 354.365 72.9415C355.539 73.9868 357.107 74.5095 359.069 74.5095ZM388.384 79.7895L377.888 46.7015H384.896L391.776 69.4535H392.16L398.848 46.7015H404.512L411.392 69.4215H411.776L418.432 46.7015H425.568L415.072 79.7895H408.352L401.568 57.7415L394.944 79.7895H388.384Z" fill="white"/>
<defs>
<clipPath id="clip0_2_6">
<rect width="100.946" height="126" fill="white"/>
</clipPath>
</defs>
</svg>
