<svg width="101" height="126" viewBox="0 0 101 126" fill="none" xmlns="http://www.w3.org/2000/svg">
<path d="M21.6313 0C9.68901 0 0 10.582 0 23.625V102.375C0 115.418 9.68901 126 21.6313 126H86.5251H93.7355C97.7238 126 100.946 122.481 100.946 118.125C100.946 113.769 97.7238 110.25 93.7355 110.25V94.5C97.7238 94.5 100.946 90.9809 100.946 86.625V7.875C100.946 3.51914 97.7238 0 93.7355 0H86.5251H21.6313ZM21.6313 94.5H79.3147V110.25H21.6313C17.643 110.25 14.4209 106.731 14.4209 102.375C14.4209 98.0191 17.643 94.5 21.6313 94.5ZM28.8417 35.4375C28.8417 33.2719 30.4641 31.5 32.4469 31.5H75.7095C77.6923 31.5 79.3147 33.2719 79.3147 35.4375C79.3147 37.6031 77.6923 39.375 75.7095 39.375H32.4469C30.4641 39.375 28.8417 37.6031 28.8417 35.4375ZM32.4469 47.25H75.7095C77.6923 47.25 79.3147 49.0219 79.3147 51.1875C79.3147 53.3531 77.6923 55.125 75.7095 55.125H32.4469C30.4641 55.125 28.8417 53.3531 28.8417 51.1875C28.8417 49.0219 30.4641 47.25 32.4469 47.25Z" fill="#0d6efd"/>
</svg>
