<svg width="80" height="80" viewBox="0 0 80 80" fill="none" xmlns="http://www.w3.org/2000/svg">
<g clip-path="url(#clip0_20_3)">
<rect width="80" height="80" rx="40" fill="#0D6EFD"/>
<path d="M40.3614 48C44.9628 48 49.3757 46.2089 52.6293 43.0208C55.883 39.8327 57.7108 35.5087 57.7108 31C57.7108 26.4913 55.883 22.1673 52.6293 18.9792C49.3757 15.7911 44.9628 14 40.3614 14C35.7601 14 31.3472 15.7911 28.0936 18.9792C24.8399 22.1673 23.012 26.4913 23.012 31C23.012 35.5087 24.8399 39.8327 28.0936 43.0208C31.3472 46.2089 35.7601 48 40.3614 48ZM34.1672 54.375C20.8163 54.375 10 64.9734 10 78.0555C10 80.2336 11.8027 82 14.0256 82H66.6973C68.9202 82 70.7229 80.2336 70.7229 78.0555C70.7229 64.9734 59.9066 54.375 46.5557 54.375H34.1672Z" fill="white"/>
</g>
<rect x="2.5" y="2.5" width="75" height="75" rx="37.5" stroke="#0D6EFD" stroke-width="5"/>
<defs>
<clipPath id="clip0_20_3">
<rect width="80" height="80" rx="40" fill="white"/>
</clipPath>
</defs>
</svg>
